<svg width="562" height="158" viewBox="0 0 562 158" fill="none" xmlns="http://www.w3.org/2000/svg">
<g clip-path="url(#clip0_144_1855)">
<path d="M79.1272 72.9641C81.7874 60.6241 80.4173 51.7341 80.4173 51.7341C59.9357 57.2741 50.515 40.4941 50.515 40.4941C50.515 40.4941 41.0943 57.2741 20.6128 51.7341C20.6128 51.7341 19.2427 60.6241 21.9029 72.9641H79.1272Z" fill="black"/>
<path d="M50.515 74.0342L29.9135 93.9742C31.7636 97.2342 33.9638 100.524 36.574 103.784L50.515 90.0442L64.4561 103.784C67.0562 100.524 69.2564 97.2242 71.1166 93.9742L50.515 74.0342Z" fill="black"/>
<path d="M50.515 74.0342L29.9135 93.9742C31.7636 97.2342 33.9638 100.524 36.574 103.784L50.515 90.0442L64.4561 103.784C67.0562 100.524 69.2564 97.2242 71.1166 93.9742L50.515 74.0342Z" fill="black"/>
<path d="M50.515 43.1941C51.4551 44.4441 52.8952 46.1341 54.8653 47.8241C61.1658 53.2341 67.8663 54.3741 72.3767 54.3741C74.5568 54.3741 76.807 54.1241 79.0972 53.6241C79.3372 56.6841 79.5672 63.7641 77.6471 72.6541C76.0869 79.8941 73.4467 86.8141 69.7965 93.2341C67.9063 96.5641 65.7062 99.8041 63.276 102.854C59.6257 107.434 55.3354 111.714 50.515 115.584C45.6946 111.714 41.4143 107.434 37.754 102.854C35.3239 99.8041 33.1237 96.5641 31.2336 93.2341C27.5833 86.8141 24.9431 79.8841 23.383 72.6541C22.0429 66.4441 21.7728 61.1541 21.7728 57.8141C21.7728 56.0541 21.8529 54.6241 21.9329 53.6241C24.223 54.1241 26.4732 54.3741 28.6534 54.3741C36.824 54.3741 42.6844 50.8141 46.1647 47.8241C48.1348 46.1341 49.5749 44.4441 50.515 43.1941ZM50.515 40.4941C50.515 40.4941 43.5745 52.8541 28.6534 52.8541C26.1932 52.8541 23.513 52.5141 20.6128 51.7341C20.6128 51.7341 19.2427 60.6241 21.9029 72.9641C23.273 79.3041 25.6931 86.5541 29.9235 93.9741C31.7736 97.2341 33.9738 100.524 36.584 103.784C40.3242 108.474 44.9146 113.114 50.525 117.504C56.1354 113.114 60.7158 108.474 64.4661 103.784C67.0663 100.524 69.2664 97.2241 71.1266 93.9741C75.3469 86.5441 77.7771 79.3041 79.1472 72.9641C81.8074 60.6241 80.4373 51.7341 80.4373 51.7341C77.537 52.5141 74.8568 52.8541 72.3967 52.8541C57.4755 52.8541 50.535 40.4941 50.535 40.4941H50.515Z" fill="black"/>
</g>
<path d="M102.56 20.2744H101.05V137.724H102.56V20.2744Z" fill="black"/>
<path d="M134.907 53.2472V58.5625H128.806V68.7309H136.571V74H121.78V38.8728H136.339V44.1881H128.806V53.2472H134.907ZM146.923 38.8728V68.6847H154.734V74H140.083V38.8728H146.923ZM170.744 53.2472V58.5625H164.643V68.7309H172.408V74H157.618V38.8728H172.177V44.1881H164.643V53.2472H170.744ZM182.31 45.8982V66.9746C182.31 68.7309 183.188 69.3318 184.528 69.3318C185.868 69.3318 186.608 68.7309 186.608 66.9746V59.4407L192.801 61.1508V66.0964C192.801 71.5503 189.797 74.4622 184.205 74.4622C179.167 74.4622 175.284 71.7814 175.284 65.7728V47.1C175.284 41.23 179.167 38.4106 184.205 38.4106C189.751 38.4106 192.801 41.2762 192.801 46.7764V50.7976L186.608 52.5077V45.8982C186.608 44.1419 185.868 43.541 184.528 43.541C183.188 43.541 182.31 44.1419 182.31 45.8982ZM207.391 44.1881V74H200.365V44.1881H194.865V38.8728H212.891V44.1881H207.391ZM222.707 74H215.682V38.8728H225.342C230.333 38.8728 233.43 40.4443 233.43 46.4529V50.3816C233.43 53.5708 231.443 55.4658 228.253 56.1591V56.344C231.258 57.1759 232.644 59.2096 233.153 62.7685C233.291 63.7854 233.338 64.9409 233.43 66.2813C233.569 70.21 233.892 72.7983 234.586 73.7689V74H227.329C226.867 73.5378 226.497 71.7352 226.497 70.1175V61.7055C226.497 58.8398 225.48 58.2852 223.816 58.2852H222.707V74ZM224.417 53.7094C225.665 53.7094 226.497 53.2934 226.497 51.3522V45.3898C226.497 44.0032 226.035 43.541 224.51 43.541H222.707V53.7094H224.417ZM245.211 38.8728V74H238.185V38.8728H245.211ZM256.422 45.8982V66.9746C256.422 68.7309 257.3 69.3318 258.641 69.3318C259.981 69.3318 260.721 68.7309 260.721 66.9746V59.4407L266.914 61.1508V66.0964C266.914 71.5503 263.91 74.4622 258.317 74.4622C253.279 74.4622 249.397 71.7814 249.397 65.7728V47.1C249.397 41.23 253.279 38.4106 258.317 38.4106C263.864 38.4106 266.914 41.2762 266.914 46.7764V50.7976L260.721 52.5077V45.8982C260.721 44.1419 259.981 43.541 258.641 43.541C257.3 43.541 256.422 44.1419 256.422 45.8982ZM282.89 38.8728L288.76 74H281.735L280.81 66.4661H276.373L275.449 74H269.07L274.987 38.8728H282.89ZM277.806 54.4027L276.928 61.7055H280.256L279.377 54.4027C279.1 52.3228 278.869 49.3185 278.73 47.8857H278.453C278.314 49.3185 278.083 52.3228 277.806 54.4027ZM298.669 38.8728V68.6847H306.481V74H291.829V38.8728H298.669ZM323.414 51.0556L327.248 74H322.659L322.055 69.079H319.157L318.553 74H314.387L318.251 51.0556H323.414ZM320.093 61.1994L319.519 65.9695H321.693L321.119 61.1994C320.938 59.8409 320.787 57.8785 320.697 56.9426H320.516C320.425 57.8785 320.274 59.8409 320.093 61.1994ZM341.393 74H337.046L334.147 61.8334C333.725 59.9918 333.362 58.3012 333.151 57.154H332.97C333 58.3314 333.061 60.173 333.061 61.9542V74H329.589V51.0556H334.6L336.834 61.2598C337.197 63.041 337.589 65.1241 337.8 66.3619H337.982C337.982 65.0939 337.891 63.1618 337.891 61.0787V51.0556H341.393V74ZM350.751 51.0556C354.525 51.0556 356.125 53.0783 356.125 56.7011V68.445C356.125 72.0376 354.525 74 350.751 74H344.592V51.0556H350.751ZM350.027 54.2255H349.181V70.7999H350.027C350.902 70.7999 351.566 70.4678 351.566 69.2904V55.8256C351.566 54.6482 350.902 54.2255 350.027 54.2255ZM373.168 45.8982V66.9746C373.168 68.7309 374.046 69.3318 375.387 69.3318C376.727 69.3318 377.467 68.7309 377.467 66.9746V59.4407L383.66 61.1508V66.0964C383.66 71.5503 380.656 74.4622 375.063 74.4622C370.025 74.4622 366.143 71.7814 366.143 65.7728V47.1C366.143 41.23 370.025 38.4106 375.063 38.4106C380.61 38.4106 383.66 41.2762 383.66 46.7764V50.7976L377.467 52.5077V45.8982C377.467 44.1419 376.727 43.541 375.387 43.541C374.046 43.541 373.168 44.1419 373.168 45.8982ZM405.957 46.9613V65.8653C405.957 72.0588 401.659 74.4622 396.713 74.4622C391.768 74.4622 387.469 72.0588 387.469 65.8653V46.9613C387.469 40.814 391.768 38.4106 396.713 38.4106C401.659 38.4106 405.957 40.814 405.957 46.9613ZM398.932 45.8982C398.932 44.1419 398.054 43.541 396.713 43.541C395.373 43.541 394.495 44.1419 394.495 45.8982V66.9746C394.495 68.7309 395.373 69.3318 396.713 69.3318C398.054 69.3318 398.932 68.7309 398.932 66.9746V45.8982ZM434.882 74H428.504V53.617C428.504 51.3522 428.596 48.2092 428.643 46.6378H428.319C428.134 48.1168 427.949 50.1967 427.672 52.9699L425.268 74H418.798L416.394 52.9699C416.117 50.1967 415.932 48.1168 415.747 46.6378H415.424C415.516 48.2092 415.562 51.3522 415.562 53.617V74H410.155V38.8728H419.953L421.756 54.4952C422.079 57.3608 422.31 60.3189 422.495 62.3526H422.726C422.957 60.3189 423.142 57.3608 423.466 54.4952L425.315 38.8728H434.882V74ZM457.131 51.9531C457.131 57.7306 454.126 59.718 449.689 59.718H446.315V74H439.29V38.8728H449.689C454.173 38.8728 457.131 40.8603 457.131 46.5915V51.9531ZM450.152 52.6001V46.0369C450.152 44.373 449.597 43.9108 448.072 43.9108H446.315V54.7725H448.072C449.597 54.7725 450.152 54.3103 450.152 52.6001ZM478.597 65.7266C478.597 71.689 474.992 74.4622 469.446 74.4622C463.853 74.4622 460.248 71.689 460.248 65.7266V38.8728H467.273V66.651C467.273 68.4074 468.059 69.0082 469.399 69.0082C470.74 69.0082 471.618 68.4074 471.618 66.651V38.8728H478.597V65.7266ZM493.757 44.1881V74H486.732V44.1881H481.231V38.8728H499.257V44.1881H493.757ZM515.313 53.2472V58.5625H509.212V68.7309H516.977V74H502.187V38.8728H516.746V44.1881H509.212V53.2472H515.313ZM527.376 74H520.35V38.8728H530.01C535.002 38.8728 538.099 40.4443 538.099 46.4529V50.3816C538.099 53.5708 536.111 55.4658 532.922 56.1591V56.344C535.927 57.1759 537.313 59.2096 537.822 62.7685C537.96 63.7854 538.006 64.9409 538.099 66.2813C538.238 70.21 538.561 72.7983 539.254 73.7689V74H531.998C531.536 73.5378 531.166 71.7352 531.166 70.1175V61.7055C531.166 58.8398 530.149 58.2852 528.485 58.2852H527.376V74ZM529.086 53.7094C530.334 53.7094 531.166 53.2934 531.166 51.3522V45.3898C531.166 44.0032 530.704 43.541 529.178 43.541H527.376V53.7094H529.086ZM134.907 98.2472V103.563H128.806V113.731H136.571V119H121.78V83.8728H136.339V89.1881H128.806V98.2472H134.907ZM158.155 119H151.499L147.062 100.373C146.415 97.5539 145.86 94.9656 145.537 93.2092H145.259C145.306 95.0118 145.398 97.8312 145.398 100.558V119H140.083V83.8728H147.755L151.175 99.4952C151.73 102.222 152.331 105.411 152.654 107.306H152.932C152.932 105.365 152.793 102.407 152.793 99.2178V83.8728H158.155V119ZM179.593 91.7764V95.3354L173.631 97.0455V90.9445C173.631 89.1881 173.03 88.541 171.643 88.541C170.256 88.541 169.378 89.1881 169.378 90.9445V111.975C169.378 113.777 170.395 114.47 171.828 114.47C173.353 114.47 174.231 113.592 174.231 111.559V105.504H171.736V101.02H179.916V119H176.542L175.618 116.273H175.387C174.231 118.63 172.752 119.462 169.702 119.462C165.126 119.462 162.353 116.643 162.353 110.773V92.1C162.353 86.23 166.282 83.4106 171.227 83.4106C176.358 83.4106 179.593 86.2762 179.593 91.7764ZM191.07 83.8728V119H184.045V83.8728H191.07ZM213.514 119H206.858L202.421 100.373C201.774 97.5539 201.219 94.9656 200.895 93.2092H200.618C200.664 95.0118 200.757 97.8312 200.757 100.558V119H195.442V83.8728H203.114L206.534 99.4952C207.089 102.222 207.69 105.411 208.013 107.306H208.291C208.291 105.365 208.152 102.407 208.152 99.2178V83.8728H213.514V119ZM231.023 98.2472V103.563H224.922V113.731H232.687V119H217.897V83.8728H232.456V89.1881H224.922V98.2472H231.023ZM249.326 98.2472V103.563H243.225V113.731H250.989V119H236.199V83.8728H250.758V89.1881H243.225V98.2472H249.326ZM261.388 119H254.363V83.8728H264.023C269.015 83.8728 272.111 85.4443 272.111 91.4529V95.3816C272.111 98.5708 270.124 100.466 266.935 101.159V101.344C269.939 102.176 271.326 104.21 271.834 107.769C271.973 108.785 272.019 109.941 272.111 111.281C272.25 115.21 272.574 117.798 273.267 118.769V119H266.01C265.548 118.538 265.178 116.735 265.178 115.118V106.705C265.178 103.84 264.162 103.285 262.498 103.285H261.388V119ZM263.099 98.7094C264.346 98.7094 265.178 98.2934 265.178 96.3522V90.3898C265.178 89.0032 264.716 88.541 263.191 88.541H261.388V98.7094H263.099ZM283.892 83.8728V119H276.866V83.8728H283.892ZM306.335 119H299.679L295.242 100.373C294.595 97.5539 294.04 94.9656 293.717 93.2092H293.44C293.486 95.0118 293.578 97.8312 293.578 100.558V119H288.263V83.8728H295.936L299.356 99.4952C299.91 102.222 300.511 105.411 300.835 107.306H301.112C301.112 105.365 300.973 102.407 300.973 99.2178V83.8728H306.335V119ZM327.773 91.7764V95.3354L321.811 97.0455V90.9445C321.811 89.1881 321.21 88.541 319.823 88.541C318.437 88.541 317.559 89.1881 317.559 90.9445V111.975C317.559 113.777 318.575 114.47 320.008 114.47C321.534 114.47 322.412 113.592 322.412 111.559V105.504H319.916V101.02H328.097V119H324.723L323.798 116.273H323.567C322.412 118.63 320.933 119.462 317.882 119.462C313.306 119.462 310.533 116.643 310.533 110.773V92.1C310.533 86.23 314.462 83.4106 319.407 83.4106C324.538 83.4106 327.773 86.2762 327.773 91.7764Z" fill="#F58025"/>
<defs>
<clipPath id="clip0_144_1855">
<rect width="60.53" height="77.01" fill="white" transform="translate(20.26 40.4941)"/>
</clipPath>
</defs>
</svg>
