<svg width="383" height="118" viewBox="0 0 383 118" fill="none" xmlns="http://www.w3.org/2000/svg">
<g clip-path="url(#clip0_173_6232)">
<path d="M79.1272 52.965C81.7874 40.625 80.4173 31.735 80.4173 31.735C59.9357 37.275 50.515 20.495 50.515 20.495C50.515 20.495 41.0943 37.275 20.6128 31.735C20.6128 31.735 19.2427 40.625 21.9029 52.965H79.1272Z" fill="black"/>
<path d="M50.515 54.035L29.9135 73.975C31.7636 77.235 33.9638 80.525 36.574 83.785L50.515 70.045L64.4561 83.785C67.0562 80.525 69.2564 77.225 71.1166 73.975L50.515 54.035Z" fill="black"/>
<path d="M50.515 54.035L29.9135 73.975C31.7636 77.235 33.9638 80.525 36.574 83.785L50.515 70.045L64.4561 83.785C67.0562 80.525 69.2564 77.225 71.1166 73.975L50.515 54.035Z" fill="black"/>
<path d="M50.515 23.195C51.4551 24.445 52.8952 26.135 54.8653 27.825C61.1658 33.235 67.8663 34.375 72.3767 34.375C74.5568 34.375 76.807 34.125 79.0972 33.625C79.3372 36.685 79.5672 43.765 77.6471 52.655C76.0869 59.895 73.4467 66.815 69.7965 73.235C67.9063 76.565 65.7062 79.805 63.276 82.855C59.6257 87.435 55.3354 91.715 50.515 95.585C45.6946 91.715 41.4143 87.435 37.754 82.855C35.3239 79.805 33.1237 76.565 31.2336 73.235C27.5833 66.815 24.9431 59.885 23.383 52.655C22.0429 46.445 21.7728 41.155 21.7728 37.815C21.7728 36.055 21.8529 34.625 21.9329 33.625C24.223 34.125 26.4732 34.375 28.6534 34.375C36.824 34.375 42.6844 30.815 46.1647 27.825C48.1348 26.135 49.5749 24.445 50.515 23.195ZM50.515 20.495C50.515 20.495 43.5745 32.855 28.6534 32.855C26.1932 32.855 23.513 32.515 20.6128 31.735C20.6128 31.735 19.2427 40.625 21.9029 52.965C23.273 59.305 25.6931 66.555 29.9235 73.975C31.7736 77.235 33.9738 80.525 36.584 83.785C40.3242 88.475 44.9146 93.115 50.525 97.505C56.1354 93.115 60.7158 88.475 64.4661 83.785C67.0663 80.525 69.2664 77.225 71.1266 73.975C75.3469 66.545 77.7771 59.305 79.1472 52.965C81.8074 40.625 80.4373 31.735 80.4373 31.735C77.537 32.515 74.8568 32.855 72.3967 32.855C57.4755 32.855 50.535 20.495 50.535 20.495H50.515Z" fill="black"/>
</g>
<path d="M102.56 20.495H101.05V97.505H102.56V20.495Z" fill="black"/>
<path d="M132.286 30.7242C132.286 34.3342 130.409 35.5761 127.637 35.5761H125.528V44.5H121.139V22.5512H127.637C130.438 22.5512 132.286 23.793 132.286 27.3742V30.7242ZM127.925 31.1286V27.0276C127.925 25.9879 127.579 25.6991 126.626 25.6991H125.528V32.4859H126.626C127.579 32.4859 127.925 32.1971 127.925 31.1286ZM138.733 44.5H134.343V22.5512H140.379C143.498 22.5512 145.433 23.5331 145.433 27.2875V29.7423C145.433 31.735 144.191 32.9191 142.199 33.3523V33.4678C144.076 33.9877 144.942 35.2584 145.26 37.4822C145.347 38.1175 145.375 38.8395 145.433 39.677C145.52 42.1318 145.722 43.7491 146.155 44.3556V44.5H141.621C141.332 44.2112 141.101 43.0849 141.101 42.0741V36.8179C141.101 35.0274 140.466 34.6808 139.426 34.6808H138.733V44.5ZM139.802 31.8217C140.581 31.8217 141.101 31.5618 141.101 30.3488V26.6233C141.101 25.7569 140.812 25.4681 139.859 25.4681H138.733V31.8217H139.802ZM152.788 22.5512V44.5H148.398V22.5512H152.788ZM166.805 44.5H162.647L159.874 32.8614C159.47 31.0997 159.123 29.4824 158.921 28.385H158.748C158.777 29.5113 158.834 31.273 158.834 32.9769V44.5H155.513V22.5512H160.307L162.444 32.3126C162.791 34.0166 163.166 36.0093 163.369 37.1934H163.542C163.542 35.9804 163.455 34.1321 163.455 32.1394V22.5512H166.805V44.5ZM173.812 26.941V40.1102C173.812 41.2077 174.361 41.5831 175.198 41.5831C176.036 41.5831 176.498 41.2077 176.498 40.1102V35.4028L180.368 36.4714V39.5615C180.368 42.9694 178.491 44.7888 174.996 44.7888C171.848 44.7888 169.422 43.1138 169.422 39.3594V27.6918C169.422 24.0241 171.848 22.2624 174.996 22.2624C178.462 22.2624 180.368 24.053 180.368 27.4897V30.0022L176.498 31.0708V26.941C176.498 25.8435 176.036 25.4681 175.198 25.4681C174.361 25.4681 173.812 25.8435 173.812 26.941ZM191.059 31.5329V34.8541H187.247V41.2077H192.099V44.5H182.857V22.5512H191.955V25.8724H187.247V31.5329H191.059ZM201.049 25.8724V44.5H196.659V25.8724H193.222V22.5512H204.485V25.8724H201.049ZM217.464 27.6052V39.4171C217.464 43.287 214.778 44.7888 211.688 44.7888C208.598 44.7888 205.912 43.287 205.912 39.4171V27.6052C205.912 23.7642 208.598 22.2624 211.688 22.2624C214.778 22.2624 217.464 23.7642 217.464 27.6052ZM213.074 26.941C213.074 25.8435 212.526 25.4681 211.688 25.4681C210.851 25.4681 210.302 25.8435 210.302 26.941V40.1102C210.302 41.2077 210.851 41.5831 211.688 41.5831C212.526 41.5831 213.074 41.2077 213.074 40.1102V26.941ZM231.373 44.5H227.214L224.441 32.8614C224.037 31.0997 223.691 29.4824 223.488 28.385H223.315C223.344 29.5113 223.402 31.273 223.402 32.9769V44.5H220.081V22.5512H224.875L227.012 32.3126C227.358 34.0166 227.734 36.0093 227.936 37.1934H228.109C228.109 35.9804 228.023 34.1321 228.023 32.1394V22.5512H231.373V44.5Z" fill="black"/>
<path d="M137.308 71.3887V77.5642H130.219V89.3782H139.241V95.5H122.057V54.688H138.972V60.8635H130.219V71.3887H137.308ZM164.161 95.5H156.428L151.273 73.8589C150.521 70.5832 149.877 67.576 149.501 65.5354H149.179C149.233 67.6297 149.34 70.9054 149.34 74.0737V95.5H143.164V54.688H152.079L156.052 72.8386C156.697 76.0069 157.395 79.7122 157.771 81.9139H158.093C158.093 79.6585 157.932 76.2217 157.932 72.5164V54.688H164.161V95.5ZM188.912 63.8707V68.0056L181.985 69.9925V62.9041C181.985 60.8635 181.286 60.1117 179.675 60.1117C178.064 60.1117 177.044 60.8635 177.044 62.9041V87.3376C177.044 89.4319 178.226 90.2374 179.89 90.2374C181.662 90.2374 182.683 89.2171 182.683 86.8543V79.8196H179.783V74.6107H189.288V95.5H185.368L184.294 92.3317H184.025C182.683 95.0704 180.964 96.037 177.42 96.037C172.104 96.037 168.882 92.7613 168.882 85.9414V64.2466C168.882 57.4267 173.446 54.151 179.192 54.151C185.153 54.151 188.912 57.4804 188.912 63.8707ZM202.09 54.688V95.5H193.927V54.688H202.09ZM228.008 95.5H220.275L215.12 73.8589C214.368 70.5832 213.724 67.576 213.348 65.5354H213.026C213.079 67.6297 213.187 70.9054 213.187 74.0737V95.5H207.011V54.688H215.926L219.899 72.8386C220.544 76.0069 221.242 79.7122 221.618 81.9139H221.94C221.94 79.6585 221.779 76.2217 221.779 72.5164V54.688H228.008V95.5ZM248.194 71.3887V77.5642H241.106V89.3782H250.127V95.5H232.943V54.688H249.859V60.8635H241.106V71.3887H248.194ZM269.302 71.3887V77.5642H262.213V89.3782H271.235V95.5H254.051V54.688H270.966V60.8635H262.213V71.3887H269.302ZM283.16 95.5H274.997V54.688H286.221C292.02 54.688 295.618 56.5138 295.618 63.4948V68.0593C295.618 71.7646 293.309 73.9663 289.604 74.7718V74.9866C293.094 75.9532 294.705 78.316 295.296 82.4509C295.457 83.6323 295.511 84.9748 295.618 86.5321C295.779 91.0966 296.155 94.1038 296.961 95.2315V95.5H288.53C287.993 94.963 287.563 92.8687 287.563 90.9892V81.2158C287.563 77.8864 286.382 77.242 284.449 77.242H283.16V95.5ZM285.147 71.9257C286.597 71.9257 287.563 71.4424 287.563 69.187V62.2597C287.563 60.6487 287.026 60.1117 285.254 60.1117H283.16V71.9257H285.147ZM309.148 54.688V95.5H300.986V54.688H309.148ZM335.066 95.5H327.334L322.178 73.8589C321.427 70.5832 320.782 67.576 320.406 65.5354H320.084C320.138 67.6297 320.245 70.9054 320.245 74.0737V95.5H314.07V54.688H322.984L326.958 72.8386C327.602 76.0069 328.3 79.7122 328.676 81.9139H328.998C328.998 79.6585 328.837 76.2217 328.837 72.5164V54.688H335.066V95.5ZM359.817 63.8707V68.0056L352.89 69.9925V62.9041C352.89 60.8635 352.192 60.1117 350.581 60.1117C348.97 60.1117 347.949 60.8635 347.949 62.9041V87.3376C347.949 89.4319 349.131 90.2374 350.795 90.2374C352.568 90.2374 353.588 89.2171 353.588 86.8543V79.8196H350.688V74.6107H360.193V95.5H356.273L355.199 92.3317H354.93C353.588 95.0704 351.869 96.037 348.325 96.037C343.009 96.037 339.787 92.7613 339.787 85.9414V64.2466C339.787 57.4267 344.351 54.151 350.097 54.151C356.058 54.151 359.817 57.4804 359.817 63.8707Z" fill="#F58025"/>
<defs>
<clipPath id="clip0_173_6232">
<rect width="60.53" height="77.01" fill="white" transform="translate(20.26 20.495)"/>
</clipPath>
</defs>
</svg>
