<?xml version="1.0" encoding="UTF-8"?>
<svg id="Layer_2" data-name="Layer 2" xmlns="http://www.w3.org/2000/svg" viewBox="0 0 434.95 115.96">
  <defs>
    <style>
      .cls-1 {
        fill: #010101;
      }

      .cls-2 {
        isolation: isolate;
      }

      .cls-3 {
        fill: #f47721;
      }

      .cls-4 {
        fill: #f0a1f6;
      }

      .cls-5 {
        fill: #f37820;
      }

      .cls-6 {
        fill: #fcb813;
      }
    </style>
  </defs>
  <g id="Layer_1-2" data-name="Layer 1">
    <path class="cls-1" d="M68.73,51.31c3.11-14.41,1.51-24.79,1.51-24.79-23.91,6.46-34.91-13.12-34.91-13.12,0,0-11,19.59-34.91,13.12,0,0-1.6,10.38,1.51,24.79"/>
    <path class="cls-1" d="M35.32,52.55l-24.05,23.29c2.16,3.8,4.73,7.65,7.77,11.46l16.28-16.04,16.27,16.04c3.04-3.81,5.61-7.65,7.77-11.46"/>
    <path class="cls-1" d="M35.32,52.55l-24.05,23.29c2.16,3.8,4.73,7.65,7.77,11.46l16.28-16.04,16.27,16.04c3.04-3.81,5.61-7.65,7.77-11.46"/>
    <path class="cls-1" d="M35.32,13.4s-8.11,14.43-25.52,14.43c-2.87,0-6-.39-9.39-1.31,0,0-1.6,10.38,1.51,24.79,1.59,7.4,4.43,15.86,9.36,24.53,2.16,3.8,4.73,7.65,7.77,11.46,4.37,5.48,9.72,10.89,16.28,16.02,6.55-5.13,11.9-10.54,16.27-16.02,3.04-3.81,5.61-7.65,7.77-11.46,4.93-8.67,7.77-17.13,9.36-24.53,3.11-14.41,1.51-24.79,1.51-24.79-3.39.92-6.52,1.31-9.39,1.31-17.42,0-25.52-14.43-25.52-14.43M35.32,16.55c1.09,1.46,2.78,3.43,5.08,5.41,7.36,6.32,15.18,7.64,20.45,7.64,2.54,0,5.17-.3,7.84-.88.29,3.58.55,11.84-1.69,22.22-1.82,8.45-4.9,16.53-9.17,24.03-2.21,3.89-4.77,7.67-7.62,11.23-4.27,5.34-9.27,10.34-14.89,14.86-5.62-4.53-10.63-9.52-14.89-14.86-2.84-3.56-5.4-7.34-7.62-11.23-4.26-7.5-7.35-15.58-9.17-24.03-1.56-7.25-1.88-13.42-1.88-17.33,0-2.06.09-3.72.19-4.89,2.67.58,5.3.88,7.84.88,9.54,0,16.38-4.16,20.44-7.64,2.3-1.98,3.99-3.95,5.08-5.41"/>
    <path class="cls-1" d="M94.33,103.31h1.77V13.38h-1.77v89.93Z"/>
    <g class="cls-2">
      <path class="cls-3" d="M120.08,100.28v-47.46h13.05c6.75,0,10.93,2.12,10.93,10.24v5.31c0,4.31-2.69,6.87-6.99,7.81v.25c4.06,1.12,5.93,3.87,6.62,8.68.19,1.37.25,2.94.38,4.75.19,5.31.62,8.81,1.56,10.12v.31h-9.81c-.62-.62-1.12-3.06-1.12-5.25v-11.37c0-3.87-1.38-4.62-3.62-4.62h-1.5v21.23h-9.49ZM134.7,69.68v-8.06c0-1.87-.62-2.5-2.69-2.5h-2.44v13.74h2.31c1.69,0,2.81-.56,2.81-3.19Z"/>
      <path class="cls-3" d="M173.29,89.29c0,8.37-5.81,11.62-12.49,11.62s-12.49-3.25-12.49-11.62v-25.54c0-8.31,5.81-11.55,12.49-11.55s12.49,3.25,12.49,11.55v25.54ZM160.8,59.12c-1.81,0-3,.81-3,3.18v28.48c0,2.37,1.19,3.19,3,3.19s3-.81,3-3.19v-28.48c0-2.37-1.19-3.18-3-3.18Z"/>
      <path class="cls-3" d="M200.78,62.43v5c0,4-2.25,6.43-6,7.37v.25c4.37.69,7.12,3.12,7.12,7.81v7.31c0,6.5-3.56,10.12-10.8,10.12h-13.62v-47.46h13.62c6.06,0,9.68,2.44,9.68,9.62ZM189.04,59.12h-2.06v13.24h1.94c1.69,0,2.81-.56,2.81-3.19v-7.56c0-1.87-.62-2.5-2.69-2.5ZM189.41,78.29h-2.44v15.68h2.44c1.87,0,2.93-.5,2.93-3.56v-8.93c0-2.12-1-3.19-2.93-3.19Z"/>
      <path class="cls-3" d="M230.38,89.29c0,8.37-5.81,11.62-12.49,11.62s-12.49-3.25-12.49-11.62v-25.54c0-8.31,5.81-11.55,12.49-11.55s12.49,3.25,12.49,11.55v25.54ZM217.89,59.12c-1.81,0-3,.81-3,3.18v28.48c0,2.37,1.19,3.19,3,3.19s3-.81,3-3.19v-28.48c0-2.37-1.19-3.18-3-3.18Z"/>
      <path class="cls-3" d="M249.06,100.28h-9.49v-40.28h-7.43v-7.18h24.36v7.18h-7.43v40.28Z"/>
      <path class="cls-3" d="M268.61,100.28h-9.49v-47.46h9.49v47.46Z"/>
      <path class="cls-3" d="M282.48,90.79c0,2.37,1.19,3.19,3,3.19s2.81-.81,2.81-3.19v-10.18l8.37,2.31v6.68c0,7.37-4.06,11.3-11.62,11.3-6.81,0-12.05-3.62-12.05-11.74v-25.23c0-7.93,5.25-11.74,12.05-11.74,7.49,0,11.62,3.87,11.62,11.3v5.43l-8.37,2.31v-8.93c0-2.37-1-3.18-2.81-3.18s-3,.81-3,3.18v28.48Z"/>
      <path class="cls-3" d="M307.96,88.97c0,3.69.94,5.18,3.25,5.18s2.93-1.31,2.93-4.43c0-2.75-1-5.37-2.56-7.06-2.19-2.25-6.12-5.68-8.12-7.87-2.12-2.5-3.62-6.43-3.62-11.12,0-7.74,4.31-11.49,11.49-11.49s10.93,3.44,10.93,10.37c0,1.56-.12,3.06-.37,4.37l-7.87,1.44c.19-1.87.37-3.5.37-5.18,0-3.06-1.06-4.18-2.81-4.18-2.06,0-2.75,1.12-2.75,4,0,2.56.81,4.68,2.44,6.37,1.62,1.5,5.87,5.43,8.49,8.56,1.69,2,3.43,6.56,3.43,10.62,0,9.18-4.31,12.37-11.8,12.37s-11.8-3.94-11.8-11.93c0-1.62.06-3.93.25-5.12l8.49-1.69c-.19,2.37-.38,4.43-.38,6.81Z"/>
    </g>
    <g class="cls-2">
      <path class="cls-1" d="M127.33,30.48h-2.46v10.42h-5.13V15.27h7.59c3.27,0,5.43,1.45,5.43,5.63v3.91c0,4.22-2.19,5.67-5.43,5.67ZM127.67,20.5c0-1.21-.41-1.55-1.52-1.55h-1.28v7.93h1.28c1.11,0,1.52-.34,1.52-1.58v-4.79Z"/>
      <path class="cls-1" d="M134.44,40.91V15.27h7.05c3.64,0,5.9,1.15,5.9,5.53v2.87c0,2.33-1.45,3.71-3.78,4.22v.13c2.19.61,3.21,2.09,3.58,4.69.1.74.13,1.59.2,2.56.1,2.87.34,4.76.84,5.46v.17h-5.3c-.34-.34-.61-1.65-.61-2.83v-6.14c0-2.09-.74-2.5-1.96-2.5h-.81v11.47h-5.13ZM142.34,24.38v-4.35c0-1.01-.34-1.35-1.45-1.35h-1.32v7.42h1.25c.91,0,1.52-.3,1.52-1.72Z"/>
      <path class="cls-1" d="M155.29,40.91h-5.13V15.27h5.13v25.64Z"/>
      <path class="cls-1" d="M166.12,40.91l-3.24-13.6c-.47-2.06-.88-3.95-1.11-5.23h-.2c.03,1.32.1,3.37.1,5.36v13.46h-3.88V15.27h5.6l2.5,11.4c.41,1.99.84,4.32,1.08,5.7h.2c0-1.42-.1-3.58-.1-5.9v-11.2h3.91v25.64h-4.86Z"/>
      <path class="cls-1" d="M178.46,35.78c0,1.28.64,1.72,1.62,1.72s1.52-.44,1.52-1.72v-5.5l4.52,1.25v3.61c0,3.98-2.19,6.11-6.28,6.11-3.68,0-6.51-1.96-6.51-6.34v-13.63c0-4.29,2.83-6.34,6.51-6.34,4.05,0,6.28,2.09,6.28,6.11v2.93l-4.52,1.25v-4.82c0-1.28-.54-1.72-1.52-1.72s-1.62.44-1.62,1.72v15.38Z"/>
      <path class="cls-1" d="M197.89,29.64h-4.45v7.42h5.67v3.85h-10.8V15.27h10.63v3.88h-5.5v6.61h4.45v3.88Z"/>
      <path class="cls-1" d="M208.85,40.91h-5.13v-21.76h-4.02v-3.88h13.16v3.88h-4.01v21.76Z"/>
      <path class="cls-1" d="M227.3,34.97c0,4.52-3.14,6.27-6.75,6.27s-6.75-1.75-6.75-6.27v-13.8c0-4.49,3.14-6.24,6.75-6.24s6.75,1.75,6.75,6.24v13.8ZM220.56,18.68c-.98,0-1.62.44-1.62,1.72v15.38c0,1.28.64,1.72,1.62,1.72s1.62-.44,1.62-1.72v-15.38c0-1.28-.64-1.72-1.62-1.72Z"/>
      <path class="cls-1" d="M238,40.91l-3.24-13.6c-.47-2.06-.88-3.95-1.11-5.23h-.2c.03,1.32.1,3.37.1,5.36v13.46h-3.88V15.27h5.6l2.5,11.4c.4,1.99.84,4.32,1.08,5.7h.2c0-1.42-.1-3.58-.1-5.9v-11.2h3.91v25.64h-4.86Z"/>
    </g>
    <path class="cls-6" d="M410.97,82.03c-4.58,0-8.87-1.29-12.51-3.52l-11.03,11.03c.19.76.27,1.56.27,2.39,0,4.67-2.96,8.64-7.11,10.13-1.14.41-2.37.63-3.65.63-5.95,0-10.76-4.82-10.76-10.76,0-1.27.23-2.51.63-3.65,1.5-4.15,5.46-7.11,10.13-7.11.75,0,1.47.08,2.17.22l10.64-10.64-12.81-12.8-16.99,16.99c-1.08,1.09-2.07,2.27-2.93,3.55-2.59,3.84-4.11,8.46-4.11,13.44,0,13.27,10.76,24.03,24.03,24.03,4.98,0,9.6-1.51,13.44-4.11,1.11-.76,2.17-1.6,3.14-2.53l32.98-32.98c-4.19,3.55-9.61,5.69-15.53,5.69"/>
    <path class="cls-5" d="M400.15,57.95c0,.75.08,1.47.23,2.17l-10.63,10.63-12.81-12.8,12.94-12.93,10.54,10.55c-.17.77-.27,1.57-.27,2.39"/>
    <path class="cls-5" d="M434.95,57.95c0,5.02-1.54,9.67-4.16,13.51-.96,1.41-2.07,2.71-3.3,3.89l-.99.99c-4.19,3.55-9.61,5.69-15.53,5.69-4.58,0-8.87-1.29-12.51-3.52l10.03-10.04c.8.19,1.63.29,2.48.29,5.95,0,10.77-4.82,10.77-10.76-.01-1.32-.24-2.57-.67-3.74-.44-1.16-1.06-2.23-1.84-3.16-.11-.13-.22-.26-.33-.38-.02-.01-.03-.03-.04-.04-.08-.08-.16-.17-.24-.24-.06-.06-.11-.11-.16-.16-.11-.1-.22-.21-.33-.31-1.91-1.73-4.44-2.78-7.21-2.78-.74,0-1.47.08-2.17.22l-10.11-10.11c3.59-2.15,7.79-3.38,12.28-3.38,6.63,0,12.64,2.69,16.99,7.03l.05.05c.25.25.5.51.74.78.13.13.25.27.36.4.35.41.7.83,1.02,1.26,3.06,4.03,4.87,9.05,4.87,14.49"/>
    <path class="cls-4" d="M398.64,37.31c3.59-2.15,7.79-3.38,12.28-3.38,6.63,0,12.64,2.69,16.99,7.03l-33.93-33.93c-1.08-1.08-2.27-2.07-3.55-2.93C386.59,1.52,381.97,0,376.99,0,363.73,0,352.97,10.76,352.97,24.03c0,4.98,1.51,9.61,4.11,13.44.75,1.12,1.59,2.16,2.52,3.14l17.34,17.34,12.94-12.93-10.49-10.49c-.77.18-1.57.27-2.4.27-4.66,0-8.63-2.97-10.12-7.12-.41-1.13-.64-2.36-.64-3.64,0-5.94,4.82-10.76,10.76-10.76,1.28,0,2.51.23,3.65.63,4.15,1.49,7.12,5.46,7.12,10.13,0,.75-.08,1.47-.22,2.17"/>
  </g>
</svg>